<svg viewBox="0 0 980 830" xmlns="http://www.w3.org/2000/svg" font-family="'Segoe UI', 'Helvetica Neue', Arial, sans-serif"><defs>
<marker id="serve" markerWidth="12" markerHeight="12" refX="9" refY="5" orient="auto"><path d="M1,1 L9,5 L1,9" fill="none" stroke="#5b6b7b" stroke-width="1.4"/></marker>
<marker id="real" markerWidth="14" markerHeight="14" refX="11" refY="6" orient="auto"><path d="M1,1 L11,6 L1,11 Z" fill="#fff" stroke="#5b6b7b" stroke-width="1.3"/></marker>
<marker id="acc" markerWidth="11" markerHeight="11" refX="8" refY="5" orient="auto"><path d="M2,1 L8,5 L2,9" fill="none" stroke="#5b6b7b" stroke-width="1.2"/></marker>
</defs><rect width="980" height="830" fill="#ffffff"/><rect x="30" y="55" width="920" height="120" fill="#f6e6c8" opacity="0.5"/><text x="42" y="73" font-family="'Segoe UI', 'Helvetica Neue', Arial, sans-serif" font-size="11" font-weight="700" letter-spacing="1.5" fill="#6b7785">STRATEGY</text><rect x="30" y="185" width="920" height="120" fill="#fbf9d0" opacity="0.5"/><text x="42" y="203" font-family="'Segoe UI', 'Helvetica Neue', Arial, sans-serif" font-size="11" font-weight="700" letter-spacing="1.5" fill="#6b7785">BUSINESS</text><rect x="30" y="315" width="920" height="130" fill="#cfe4ff" opacity="0.5"/><text x="42" y="333" font-family="'Segoe UI', 'Helvetica Neue', Arial, sans-serif" font-size="11" font-weight="700" letter-spacing="1.5" fill="#6b7785">APPLICATION</text><rect x="30" y="455" width="920" height="120" fill="#e9eef3" opacity="0.5"/><text x="42" y="473" font-family="'Segoe UI', 'Helvetica Neue', Arial, sans-serif" font-size="11" font-weight="700" letter-spacing="1.5" fill="#6b7785">DATA</text><rect x="30" y="585" width="920" height="120" fill="#d4f2d1" opacity="0.5"/><text x="42" y="603" font-family="'Segoe UI', 'Helvetica Neue', Arial, sans-serif" font-size="11" font-weight="700" letter-spacing="1.5" fill="#6b7785">TECHNOLOGY</text><g><rect x="70" y="88" width="200" height="62" rx="9" fill="#f6e6c8" stroke="#c89a4e" stroke-width="1.6"/><g stroke="#c89a4e" stroke-width="1.3" fill="none"><rect x="250" y="95" width="15" height="10" rx="5"/></g><text x="81" y="122.0" font-family="'Segoe UI', 'Helvetica Neue', Arial, sans-serif" font-size="12.5" font-weight="600" fill="#6e4f17">Metering &amp; Measurement</text></g><g><rect x="300" y="88" width="190" height="62" rx="9" fill="#f6e6c8" stroke="#c89a4e" stroke-width="1.6"/><g stroke="#c89a4e" stroke-width="1.3" fill="none"><rect x="470" y="95" width="15" height="10" rx="5"/></g><text x="311" y="122.0" font-family="'Segoe UI', 'Helvetica Neue', Arial, sans-serif" font-size="12.5" font-weight="600" fill="#6e4f17">Outage Management</text></g><g><rect x="520" y="88" width="190" height="62" rx="9" fill="#f6e6c8" stroke="#c89a4e" stroke-width="1.6"/><g stroke="#c89a4e" stroke-width="1.3" fill="none"><rect x="690" y="95" width="15" height="10" rx="5"/></g><text x="531" y="122.0" font-family="'Segoe UI', 'Helvetica Neue', Arial, sans-serif" font-size="12.5" font-weight="600" fill="#6e4f17">Billing &amp; Revenue</text></g><g><rect x="70" y="218" width="200" height="60" rx="2" fill="#fbf9d0" stroke="#b3a200" stroke-width="1.6"/><g stroke="#b3a200" stroke-width="1.3" fill="none"><path d="M 250 225 l 9 0 l 6 5 l -6 5 l -9 0 l 5 -5 z"/></g><text x="81" y="251.0" font-family="'Segoe UI', 'Helvetica Neue', Arial, sans-serif" font-size="12.5" font-weight="600" fill="#5b5300">Field &amp; Meter Operations</text></g><g><rect x="520" y="218" width="190" height="60" rx="9" fill="#fbf9d0" stroke="#b3a200" stroke-width="1.6"/><g stroke="#b3a200" stroke-width="1.3" fill="none"><rect x="690" y="225" width="15" height="10" rx="5"/></g><text x="531" y="251.0" font-family="'Segoe UI', 'Helvetica Neue', Arial, sans-serif" font-size="12.5" font-weight="600" fill="#5b5300">Meter-to-Cash</text></g><g><rect x="70" y="348" width="175" height="64" rx="2" fill="#cfe4ff" stroke="#5a89c4" stroke-width="1.6"/><g stroke="#5a89c4" stroke-width="1.3" fill="none"><rect x="228" y="354" width="12" height="12"/><rect x="224" y="356" width="6" height="3.2" fill="#5a89c4"/><rect x="224" y="361" width="6" height="3.2" fill="#5a89c4"/></g><text x="81" y="383.0" font-family="'Segoe UI', 'Helvetica Neue', Arial, sans-serif" font-size="12.5" font-weight="600" fill="#1f3f63">AMI Head-End System</text></g><g><rect x="300" y="348" width="185" height="64" rx="2" fill="#cfe4ff" stroke="#5a89c4" stroke-width="1.6"/><g stroke="#5a89c4" stroke-width="1.3" fill="none"><rect x="468" y="354" width="12" height="12"/><rect x="464" y="356" width="6" height="3.2" fill="#5a89c4"/><rect x="464" y="361" width="6" height="3.2" fill="#5a89c4"/></g><text x="311" y="376.0" font-family="'Segoe UI', 'Helvetica Neue', Arial, sans-serif" font-size="12.5" font-weight="600" fill="#1f3f63">Meter Data Management</text><text x="311" y="403" font-family="'Segoe UI', 'Helvetica Neue', Arial, sans-serif" font-size="10" fill="#5a89c4">MDM</text></g><g><rect x="540" y="348" width="170" height="64" rx="2" fill="#cfe4ff" stroke="#5a89c4" stroke-width="1.6"/><g stroke="#5a89c4" stroke-width="1.3" fill="none"><rect x="693" y="354" width="12" height="12"/><rect x="689" y="356" width="6" height="3.2" fill="#5a89c4"/><rect x="689" y="361" width="6" height="3.2" fill="#5a89c4"/></g><text x="551" y="383.0" font-family="'Segoe UI', 'Helvetica Neue', Arial, sans-serif" font-size="12.5" font-weight="600" fill="#1f3f63">CIS / Billing</text></g><g><rect x="760" y="356" width="150" height="50" rx="9" fill="#cfe4ff" stroke="#5a89c4" stroke-width="1.6"/><g stroke="#5a89c4" stroke-width="1.3" fill="none"><rect x="890" y="363" width="15" height="10" rx="5"/></g><text x="771" y="384.0" font-family="'Segoe UI', 'Helvetica Neue', Arial, sans-serif" font-size="12.5" font-weight="600" fill="#1f3f63">Usage Aggregation</text></g><g><rect x="70" y="488" width="118" height="56" rx="2" fill="#e9eef3" stroke="#9aa9b8" stroke-width="1.6"/><g stroke="#9aa9b8" stroke-width="1.3" fill="none"><rect x="168" y="494" width="15" height="12"/><line x1="168" y1="498" x2="183" y2="498"/></g><text x="81" y="519.0" font-family="'Segoe UI', 'Helvetica Neue', Arial, sans-serif" font-size="12.5" font-weight="600" fill="#3a4654">Meter</text></g><g><rect x="220" y="488" width="140" height="56" rx="2" fill="#e9eef3" stroke="#9aa9b8" stroke-width="1.6"/><g stroke="#9aa9b8" stroke-width="1.3" fill="none"><rect x="340" y="494" width="15" height="12"/><line x1="340" y1="498" x2="355" y2="498"/></g><text x="231" y="519.0" font-family="'Segoe UI', 'Helvetica Neue', Arial, sans-serif" font-size="12.5" font-weight="600" fill="#3a4654">Service Point</text></g><g><rect x="392" y="488" width="150" height="56" rx="2" fill="#e9eef3" stroke="#9aa9b8" stroke-width="1.6"/><g stroke="#9aa9b8" stroke-width="1.3" fill="none"><rect x="522" y="494" width="15" height="12"/><line x1="522" y1="498" x2="537" y2="498"/></g><text x="403" y="519.0" font-family="'Segoe UI', 'Helvetica Neue', Arial, sans-serif" font-size="12.5" font-weight="600" fill="#3a4654">Usage Reading</text></g><g><rect x="575" y="488" width="118" height="56" rx="2" fill="#e9eef3" stroke="#9aa9b8" stroke-width="1.6"/><g stroke="#9aa9b8" stroke-width="1.3" fill="none"><rect x="673" y="494" width="15" height="12"/><line x1="673" y1="498" x2="688" y2="498"/></g><text x="586" y="519.0" font-family="'Segoe UI', 'Helvetica Neue', Arial, sans-serif" font-size="12.5" font-weight="600" fill="#3a4654">Customer</text></g><g><rect x="725" y="488" width="118" height="56" rx="2" fill="#e9eef3" stroke="#9aa9b8" stroke-width="1.6"/><g stroke="#9aa9b8" stroke-width="1.3" fill="none"><rect x="823" y="494" width="15" height="12"/><line x1="823" y1="498" x2="838" y2="498"/></g><text x="736" y="519.0" font-family="'Segoe UI', 'Helvetica Neue', Arial, sans-serif" font-size="12.5" font-weight="600" fill="#3a4654">Account</text></g><g><rect x="70" y="618" width="180" height="58" rx="2" fill="#d4f2d1" stroke="#5fae5f" stroke-width="1.6"/><g stroke="#5fae5f" stroke-width="1.3" fill="none"><path d="M 230 627 l 4 -3 l 11 0 l 0 9 l -4 3 l -11 0 z"/><path d="M 245 624 l -4 3 l 0 9"/></g><text x="81" y="643.0" font-family="'Segoe UI', 'Helvetica Neue', Arial, sans-serif" font-size="12.5" font-weight="600" fill="#245d24">AMI Network</text><text x="81" y="667" font-family="'Segoe UI', 'Helvetica Neue', Arial, sans-serif" font-size="10" fill="#5fae5f">RF mesh</text></g><g><rect x="330" y="618" width="210" height="58" rx="2" fill="#d4f2d1" stroke="#5fae5f" stroke-width="1.6"/><g stroke="#5fae5f" stroke-width="1.3" fill="none"><path d="M 520 627 l 4 -3 l 11 0 l 0 9 l -4 3 l -11 0 z"/><path d="M 535 624 l -4 3 l 0 9"/></g><text x="341" y="643.0" font-family="'Segoe UI', 'Helvetica Neue', Arial, sans-serif" font-size="12.5" font-weight="600" fill="#245d24">Integration Bus</text><text x="341" y="667" font-family="'Segoe UI', 'Helvetica Neue', Arial, sans-serif" font-size="10" fill="#5fae5f">publish / subscribe</text></g><g><rect x="620" y="618" width="200" height="58" rx="2" fill="#d4f2d1" stroke="#5fae5f" stroke-width="1.6"/><g stroke="#5fae5f" stroke-width="1.3" fill="none"><path d="M 800 627 l 4 -3 l 11 0 l 0 9 l -4 3 l -11 0 z"/><path d="M 815 624 l -4 3 l 0 9"/></g><text x="631" y="650.0" font-family="'Segoe UI', 'Helvetica Neue', Arial, sans-serif" font-size="12.5" font-weight="600" fill="#245d24">MDM Platform</text></g><line x1="150" y1="218" x2="160" y2="150" stroke="#5b6b7b" stroke-width="1.4" stroke-dasharray="5 4" marker-end="url(#real)"/><line x1="230" y1="218" x2="360" y2="150" stroke="#5b6b7b" stroke-width="1.4" stroke-dasharray="5 4" marker-end="url(#real)"/><line x1="610" y1="218" x2="610" y2="150" stroke="#5b6b7b" stroke-width="1.4" stroke-dasharray="5 4" marker-end="url(#real)"/><line x1="157" y1="348" x2="150" y2="278" stroke="#5b6b7b" stroke-width="1.4" marker-end="url(#serve)"/><line x1="392" y1="348" x2="200" y2="278" stroke="#5b6b7b" stroke-width="1.4" marker-end="url(#serve)"/><line x1="625" y1="348" x2="610" y2="278" stroke="#5b6b7b" stroke-width="1.4" marker-end="url(#serve)"/><line x1="835" y1="356" x2="620" y2="278" stroke="#5b6b7b" stroke-width="1.4" marker-end="url(#serve)"/><line x1="485" y1="360" x2="760" y2="372" stroke="#5b6b7b" stroke-width="1.4" stroke-dasharray="5 4" marker-end="url(#real)"/><line x1="140" y1="412" x2="128" y2="488" stroke="#5b6b7b" stroke-width="1.4" stroke-dasharray="5 4" marker-end="url(#acc)"/><line x1="360" y1="412" x2="300" y2="488" stroke="#5b6b7b" stroke-width="1.4" stroke-dasharray="5 4" marker-end="url(#acc)"/><line x1="400" y1="412" x2="460" y2="488" stroke="#5b6b7b" stroke-width="1.4" stroke-dasharray="5 4" marker-end="url(#acc)"/><line x1="620" y1="412" x2="630" y2="488" stroke="#5b6b7b" stroke-width="1.4" stroke-dasharray="5 4" marker-end="url(#acc)"/><line x1="640" y1="412" x2="780" y2="488" stroke="#5b6b7b" stroke-width="1.4" stroke-dasharray="5 4" marker-end="url(#acc)"/><line x1="160" y1="618" x2="157" y2="412" stroke="#5b6b7b" stroke-width="1.4" marker-end="url(#serve)"/><line x1="430" y1="618" x2="392" y2="412" stroke="#5b6b7b" stroke-width="1.4" marker-end="url(#serve)"/><line x1="700" y1="618" x2="625" y2="412" stroke="#5b6b7b" stroke-width="1.4" marker-end="url(#serve)"/><text x="940" y="478" text-anchor="end" font-family="'Segoe UI', 'Helvetica Neue', Arial, sans-serif" font-size="10.5" fill="#5aa39a" font-style="italic">canonical · CIM IEC 61968 mapped</text></svg>